<svg width="19" height="12" viewBox="0 0 19 12" fill="none" xmlns="http://www.w3.org/2000/svg">
<path d="M17.4114 10.3953C15.3922 8.78004 17.7089 5.91079 17.4326 2.829C17.1988 2.48894 15.3923 2.42518 15.4985 1.23497C11.9279 1.1287 8.69733 1.08618 2.81005 1.08618C2.38498 1.7663 2.70377 0.916148 2.19368 3.57286C1.78986 3.74289 1.42856 4.63555 2.40623 5.33693C2.40623 5.29442 2.0449 6.78218 1.19475 6.8672C1.15224 6.95221 1.06724 8.525 1.76861 8.97133L1.87488 9.18385C1.87488 9.18385 1.51357 9.90648 1.57733 10.4591C5.78557 10.7991 11.1203 10.5866 17.4964 10.6078L17.3901 10.3953H17.4114Z" fill="white"/>
<path d="M17.4114 10.3953C15.3922 8.78004 17.7089 5.91079 17.4326 2.829C17.1988 2.48894 15.3923 2.42518 15.4985 1.23497C11.9279 1.1287 8.69733 1.08618 2.81005 1.08618C2.38498 1.7663 2.70377 0.916148 2.19368 3.57286C1.78986 3.74289 1.42856 4.63555 2.40623 5.33693C2.40623 5.29442 2.0449 6.78218 1.19475 6.8672C1.15224 6.95221 1.06724 8.525 1.76861 8.97133L1.87488 9.18385C1.87488 9.18385 1.51357 9.90648 1.57733 10.4591C5.78557 10.7991 11.1203 10.5866 17.4964 10.6078L17.3901 10.3953H17.4114Z" stroke="black" stroke-width="1.06269" stroke-linecap="round" stroke-linejoin="round"/>
</svg>
