<svg width="67" height="48" viewBox="0 0 67 48" fill="none" xmlns="http://www.w3.org/2000/svg">
<path d="M65.8503 11.4004C64.6388 13.207 64.15 13.5683 64.0224 14.2484C64.4475 15.7149 65.0639 15.6937 64.9151 15.7787C64.6176 19.8594 65.829 20.8371 65.6802 22.5799C59.8354 27.4257 53.1405 26.1293 50.5688 31.3577C50.0375 31.3577 49.9312 31.9953 49.9312 31.9741C49.2511 32.4629 48.9748 32.4416 49.0173 32.4629C47.6146 34.7583 49.0173 36.0122 49.5487 36.6711C50.0587 36.0548 50.4838 36.1823 50.6326 36.0335V36.3523C50.3563 36.7349 50.2925 36.8624 50.2925 36.9049L49.9737 36.7986C49.0598 37.6913 48.9748 37.5638 48.6347 37.6913C48.5497 38.2226 48.5497 38.4352 48.5072 38.584C47.6146 38.6052 47.9759 39.8592 48.0821 39.8379L48.2309 39.6254H48.3372C48.571 40.178 48.1459 40.518 48.2309 40.4968C41.7273 38.3927 35.8188 40.7306 31.1642 40.3693C30.6541 39.8592 30.6541 39.9655 30.4415 39.8379L30.1865 40.008C29.6339 39.5191 29.5489 39.4979 29.5064 39.3916C29.9314 39.4128 29.8464 39.4766 29.974 39.5191L30.1653 39.3491V39.2003L30.0377 39.0728C29.5064 38.9665 29.5702 38.924 29.5276 38.9453C29.7827 37.8401 31.2492 36.6711 31.1217 36.7986L30.8029 36.8411L30.6753 36.7774C30.6753 36.4586 30.8029 36.4586 30.7604 36.4373C31.8231 36.1823 31.1642 35.0346 31.228 34.9496C30.7391 34.822 30.5691 34.9921 30.5903 34.9496L30.4203 34.8433C29.974 35.5447 27.9336 35.7785 28.0611 36.076C27.296 36.0122 27.2535 36.3098 27.1685 36.3098C26.8709 37.3087 27.9124 38.2226 27.6573 38.0739H27.7636C27.8699 37.8613 27.9549 37.8826 27.9974 37.8188C27.9761 38.2652 28.3162 38.2651 28.3374 38.3077C28.1674 38.3077 28.1462 38.4564 28.1037 38.4352C28.9538 38.9453 28.6987 38.7752 28.9538 39.009C28.9963 39.6254 28.9113 39.7316 28.9538 39.8167L29.1451 39.7104V40.0292C26.2546 42.0696 23.3641 40.4968 22.2801 42.1333H22.1738C18.6032 41.2407 16.7541 42.3034 15.0964 42.6859L14.8413 42.5796C14.65 41.7295 14.9689 41.8995 14.8838 41.8145L15.1176 41.687C16.3503 41.6445 16.074 41.9846 16.3078 41.9633H16.4991C16.7754 41.4957 16.7116 41.2619 16.7329 41.3257C19.1558 42.6434 21.1112 41.3257 21.5575 41.0706C20.6223 40.9856 20.5586 40.6881 20.4098 40.5393C19.7084 40.7731 19.4321 39.8379 19.3684 39.8379C18.1357 39.4766 18.2419 39.7104 18.2207 39.6679L18.1144 39.3066C17.4768 39.3066 17.2005 39.2853 17.1792 39.2428L17.413 39.1153V38.9878C15.6277 39.6679 14.9051 39.4766 14.3737 40.4118L14.0549 40.4543C14.31 39.7742 14.1825 39.9867 14.225 39.9017L14.1825 39.7529L13.9487 39.8167C13.5874 40.4968 13.5448 40.7518 13.5448 40.6881C12.5672 41.8995 12.3334 41.2619 11.7595 41.8145H11.6745C11.6532 41.4957 11.5683 41.5807 11.5683 41.5382C11.2069 41.7083 11.1857 41.857 11.1857 41.8145L10.8881 41.772L10.8031 41.687C10.8669 40.9219 10.8456 41.1769 10.8031 40.9219C10.4418 40.7518 10.2718 40.8794 10.3143 40.8369C9.9317 41.2194 10.038 41.0919 9.86796 41.1556L9.8042 40.8369C9.35787 41.0494 9.46414 41.1131 9.33661 41.1982L8.95403 40.9006V40.6668C9.50663 40.2843 9.54915 40.518 9.63416 40.3693C9.63416 40.008 9.50662 39.9442 9.54913 39.9442C9.40035 39.8167 9.35788 39.8379 9.37913 39.8167V39.7104L9.54913 39.5616C9.18782 39.3066 8.91154 39.4766 8.86903 39.4341L8.9753 39.7104C8.80527 40.0717 8.61398 40.1355 8.63524 40.178C8.44395 39.8804 8.42269 39.8379 8.42269 39.7954C8.16764 39.8592 8.2314 39.9017 8.18889 39.9229L7.97638 39.7529C7.46629 40.263 7.53005 40.6456 7.50879 40.5605L7.57255 40.8369C6.33984 41.4107 4.4695 41.857 4.7458 41.8995C4.80956 41.602 4.83082 41.5595 4.85208 41.5382C3.40682 41.1769 3.19429 43.0898 3.13053 42.8347C3.21555 43.111 3.25805 43.1535 3.25805 43.196C2.6842 44.1312 3.04552 44.6625 3.00301 44.7688C3.81065 44.535 3.95943 44.2162 4.0657 44.2587L4.38449 44.4075L3.59811 45.0238L3.49184 45.3639C3.85315 44.875 4.15069 45.0451 4.17194 44.9813L4.42701 45.1088C3.81065 45.7039 4.02317 45.7677 3.98067 46.0228C4.61828 44.9813 5.19213 45.0026 5.5747 44.9813C5.38341 45.3851 5.3409 45.2789 5.23463 45.3639L5.53218 45.6402C6.5311 45.789 6.21231 45.8315 6.33983 45.8315L6.48862 46.2566L6.10604 46.1503C5.27714 47.0004 5.23463 47.2767 5.10711 47.2767C4.44825 47.1492 4.63954 47.0642 4.55453 47.0855L4.29946 47.1279C3.38555 46.7454 2.76919 47.2767 2.70543 47.2342C1.57898 46.6179 2.06784 46.4903 1.72778 46.1928L1.6215 46.1503H1.5365C1.38773 46.3416 1.40896 46.2565 1.38771 46.2778H1.28143C-0.716415 44.3862 2.34412 42.6221 1.57899 40.6455C3.13051 39.3491 5.59595 38.6477 7.10497 38.0951L7.16873 38.1376C7.23249 38.3289 7.25376 38.3927 7.25376 38.4139C8.91155 38.3289 11.2069 37.6275 10.6968 36.4373C12.5247 35.1621 12.0783 34.5245 11.292 33.4405H11.2282C10.208 33.6956 9.46413 33.3768 9.0603 33.6106C8.80526 33.4618 8.784 33.313 8.784 33.3555H8.699H8.63524C7.61506 33.8656 6.1698 34.2057 5.63845 33.7806C4.4695 34.2694 4.06567 33.1643 4.00191 32.8029C3.78937 32.7392 3.78939 32.8029 3.78939 32.7817C2.62044 31.4214 2.15286 30.0187 1.00516 30.125C2.66295 28.8497 2.9605 29.3386 3.83191 29.4449C9.86796 26.8519 16.5204 24.2589 20.4948 24.1102C20.9199 23.6426 21.2174 23.8339 21.43 23.8976C21.7063 23.7701 21.7913 23.6426 21.8551 23.6638H21.9401C24.6605 24.4077 29.5914 21.0071 29.4001 24.5777L29.5914 24.514C29.8252 24.1102 29.8677 24.1952 29.974 24.0889C30.4628 24.0889 30.6116 24.2377 30.5903 24.1952L30.7179 24.1527C31.0792 23.4088 30.9516 23.4513 31.0792 23.3025C35.3937 21.5172 40.0695 19.3706 42.3862 18.0529C43.2576 18.4779 43.5338 17.6703 43.7889 17.6916C44.8728 15.9275 42.875 16.5651 42.3011 16.2676C43.1725 13.6321 43.7251 11.5917 44.7878 10.9541C45.2341 7.87233 46.1481 6.93717 46.8919 4.93932C45.3404 4.79054 46.6369 3.70659 46.9769 3.4728C48.7622 4.34421 49.8037 2.43137 49.825 1.41119C50.4413 1.36868 50.6963 1.09239 50.7601 0.922363C53.8206 1.85753 52.0566 1.47496 53.1618 2.58015V2.64391C53.013 4.0254 53.2893 5.19437 53.0768 6.40583C53.2256 6.59711 53.2468 6.53333 53.2468 6.55459L53.2893 6.63959C53.2893 6.83087 53.2681 6.85214 53.2681 6.85214L53.3106 6.89465C54.7133 6.85215 55.7335 8.38242 56.7536 7.95734C59.7079 9.48761 64.1287 7.93608 65.829 9.8064C65.999 10.274 65.8927 10.3165 65.9353 10.3377C65.8077 10.9966 65.8715 11.4854 65.8715 11.4217L65.8503 11.4004Z" fill="white"/>
<path d="M65.8503 11.4004C64.6388 13.207 64.15 13.5683 64.0224 14.2484C64.4475 15.7149 65.0639 15.6937 64.9151 15.7787C64.6176 19.8594 65.829 20.8371 65.6802 22.5799C59.8354 27.4257 53.1405 26.1293 50.5688 31.3577C50.0375 31.3577 49.9312 31.9953 49.9312 31.9741C49.2511 32.4629 48.9748 32.4416 49.0173 32.4629C47.6146 34.7583 49.0173 36.0122 49.5487 36.6711C50.0587 36.0548 50.4838 36.1823 50.6326 36.0335V36.3523C50.3563 36.7349 50.2925 36.8624 50.2925 36.9049L49.9737 36.7986C49.0598 37.6913 48.9748 37.5638 48.6347 37.6913C48.5497 38.2226 48.5497 38.4352 48.5072 38.584C47.6146 38.6052 47.9759 39.8592 48.0821 39.8379L48.2309 39.6254H48.3372C48.571 40.178 48.1459 40.518 48.2309 40.4968C41.7273 38.3927 35.8188 40.7306 31.1642 40.3693C30.6541 39.8592 30.6541 39.9654 30.4415 39.8379L30.1865 40.008C29.6339 39.5191 29.5489 39.4979 29.5064 39.3916C29.9314 39.4128 29.8464 39.4766 29.974 39.5191L30.1653 39.3491V39.2003L30.0377 39.0728C29.5064 38.9665 29.5702 38.924 29.5276 38.9453C29.7827 37.8401 31.2492 36.6711 31.1217 36.7986L30.8029 36.8411L30.6753 36.7774C30.6753 36.4586 30.8029 36.4586 30.7604 36.4373C31.8231 36.1823 31.1642 35.0346 31.228 34.9496C30.7391 34.822 30.5691 34.9921 30.5903 34.9496L30.4203 34.8433C29.974 35.5447 27.9336 35.7785 28.0611 36.076C27.296 36.0122 27.2535 36.3098 27.1685 36.3098C26.8709 37.3087 27.9124 38.2226 27.6573 38.0739H27.7636C27.8699 37.8613 27.9549 37.8826 27.9974 37.8188C27.9761 38.2652 28.3162 38.2651 28.3374 38.3077C28.1674 38.3077 28.1462 38.4564 28.1037 38.4352C28.9538 38.9453 28.6987 38.7752 28.9538 39.009C28.9963 39.6254 28.9113 39.7316 28.9538 39.8167L29.1451 39.7104V40.0292C26.2546 42.0696 23.3641 40.4968 22.2801 42.1333H22.1738C18.6032 41.2407 16.7541 42.3034 15.0964 42.6859L14.8413 42.5796C14.65 41.7295 14.9689 41.8995 14.8838 41.8145L15.1176 41.687C16.3503 41.6445 16.074 41.9846 16.3078 41.9633H16.4991C16.7754 41.4957 16.7116 41.2619 16.7329 41.3257C19.1558 42.6434 21.1112 41.3257 21.5575 41.0706C20.6223 40.9856 20.5586 40.6881 20.4098 40.5393C19.7084 40.7731 19.4321 39.8379 19.3684 39.8379C18.1357 39.4766 18.2419 39.7104 18.2207 39.6679L18.1144 39.3066C17.4768 39.3066 17.2005 39.2853 17.1792 39.2428L17.413 39.1153V38.9878C15.6277 39.6679 14.9051 39.4766 14.3737 40.4118L14.0549 40.4543C14.31 39.7742 14.1825 39.9867 14.225 39.9017L14.1825 39.7529L13.9487 39.8167C13.5874 40.4968 13.5448 40.7518 13.5448 40.6881C12.5672 41.8995 12.3334 41.2619 11.7595 41.8145H11.6745C11.6532 41.4957 11.5683 41.5807 11.5683 41.5382C11.2069 41.7083 11.1857 41.857 11.1857 41.8145L10.8881 41.772L10.8031 41.687C10.8669 40.9219 10.8456 41.1769 10.8031 40.9219C10.4418 40.7518 10.2718 40.8794 10.3143 40.8369C9.9317 41.2194 10.038 41.0919 9.86796 41.1556L9.8042 40.8369C9.35787 41.0494 9.46414 41.1131 9.33661 41.1982L8.95403 40.9006V40.6668C9.50663 40.2843 9.54915 40.518 9.63416 40.3693C9.63416 40.008 9.50662 39.9442 9.54913 39.9442C9.40035 39.8167 9.35788 39.8379 9.37913 39.8167V39.7104L9.54913 39.5616C9.18782 39.3066 8.91154 39.4766 8.86903 39.4341L8.9753 39.7104C8.80527 40.0717 8.61398 40.1355 8.63524 40.178C8.44395 39.8804 8.42269 39.8379 8.42269 39.7954C8.16764 39.8592 8.2314 39.9017 8.18889 39.9229L7.97638 39.7529C7.46629 40.263 7.53005 40.6456 7.50879 40.5605L7.57255 40.8369C6.33983 41.4107 4.4695 41.857 4.7458 41.8995C4.80956 41.602 4.83082 41.5595 4.85208 41.5382C3.40682 41.1769 3.19429 43.0898 3.13053 42.8347C3.21555 43.111 3.25805 43.1535 3.25805 43.196C2.6842 44.1312 3.04552 44.6625 3.00301 44.7688C3.81065 44.535 3.95943 44.2162 4.0657 44.2587L4.38449 44.4075L3.59811 45.0238L3.49184 45.3639C3.85315 44.875 4.15069 45.0451 4.17194 44.9813L4.42701 45.1088C3.81065 45.7039 4.02317 45.7677 3.98067 46.0228C4.61828 44.9813 5.19213 45.0026 5.5747 44.9813C5.38341 45.3851 5.3409 45.2789 5.23463 45.3639L5.53218 45.6402C6.5311 45.789 6.21231 45.8315 6.33983 45.8315L6.48862 46.2566L6.10604 46.1503C5.27714 47.0004 5.23463 47.2767 5.10711 47.2767C4.44825 47.1492 4.63954 47.0642 4.55453 47.0855L4.29946 47.1279C3.38555 46.7454 2.76919 47.2767 2.70543 47.2342C1.57898 46.6179 2.06784 46.4903 1.72778 46.1928L1.6215 46.1503H1.5365C1.38773 46.3416 1.40896 46.2565 1.38771 46.2778H1.28143C-0.716415 44.3862 2.34412 42.6221 1.57899 40.6455C3.13051 39.3491 5.59595 38.6477 7.10497 38.0951L7.16872 38.1376C7.23249 38.3289 7.25376 38.3927 7.25376 38.4139C8.91155 38.3289 11.2069 37.6275 10.6968 36.4373C12.5247 35.1621 12.0783 34.5245 11.292 33.4405H11.2282C10.208 33.6956 9.46413 33.3768 9.0603 33.6106C8.80526 33.4618 8.784 33.313 8.784 33.3555H8.699H8.63524C7.61506 33.8656 6.1698 34.2057 5.63845 33.7806C4.4695 34.2694 4.06567 33.1643 4.00191 32.8029C3.78937 32.7392 3.78939 32.8029 3.78939 32.7817C2.62044 31.4214 2.15286 30.0187 1.00516 30.125C2.66295 28.8497 2.9605 29.3386 3.83191 29.4449C9.86796 26.8519 16.5204 24.2589 20.4948 24.1102C20.9199 23.6426 21.2174 23.8339 21.43 23.8976C21.7063 23.7701 21.7913 23.6426 21.8551 23.6638H21.9401C24.6605 24.4077 29.5914 21.0071 29.4001 24.5777L29.5914 24.514C29.8252 24.1102 29.8677 24.1952 29.974 24.0889C30.4628 24.0889 30.6116 24.2377 30.5903 24.1952L30.7179 24.1527C31.0792 23.4088 30.9516 23.4513 31.0792 23.3025C35.3937 21.5172 40.0695 19.3706 42.3862 18.0529C43.2576 18.4779 43.5338 17.6703 43.7889 17.6916C44.8728 15.9275 42.875 16.5651 42.3011 16.2676C43.1725 13.6321 43.7251 11.5917 44.7878 10.9541C45.2341 7.87233 46.1481 6.93717 46.8919 4.93932C45.3404 4.79054 46.6369 3.70659 46.9769 3.4728C48.7623 4.34421 49.8037 2.43137 49.825 1.41119C50.4413 1.36868 50.6963 1.09239 50.7601 0.922363C53.8206 1.85753 52.0566 1.47496 53.1618 2.58015V2.64391C53.013 4.0254 53.2893 5.19437 53.0768 6.40583C53.2256 6.59711 53.2468 6.53333 53.2468 6.55459L53.2893 6.63959C53.2893 6.83087 53.2681 6.85214 53.2681 6.85214L53.3106 6.89465C54.7133 6.85215 55.7335 8.38242 56.7536 7.95734C59.7079 9.48761 64.1287 7.93608 65.829 9.8064C65.999 10.274 65.8927 10.3165 65.9353 10.3377C65.8077 10.9966 65.8715 11.4854 65.8715 11.4217L65.8503 11.4004Z" stroke="black" stroke-width="1.06269" stroke-linecap="round" stroke-linejoin="round"/>
<path d="M13.5235 43.9182C13.141 44.0033 13.2685 44.0458 13.0985 44.1095C12.8859 44.0032 12.9497 43.897 12.9284 43.8545C12.5459 43.7907 12.5459 43.9395 12.4609 43.982L12.2271 43.8545C11.1006 44.8747 10.548 44.0458 9.99541 43.982C9.48532 44.3221 9.54907 44.8322 9.48531 44.8534H9.40031C9.40031 44.7471 9.37906 44.7471 9.40031 44.7471C8.99649 44.4708 9.3153 44.1733 9.27279 44.1308C8.91148 44.152 8.99648 44.1308 8.89021 44.1095C8.74143 43.897 8.80519 43.8757 8.78394 43.8757H8.80521C10.0379 43.4081 9.84665 42.9406 9.97417 43.0043L10.1867 43.1106C11.0368 42.5367 10.803 42.303 10.9093 42.1329H11.0156C11.1644 42.1967 11.1218 42.2179 11.1431 42.2605C11.5682 42.303 11.7807 42.5155 11.8232 42.5155V42.6218C11.5894 42.643 11.5469 42.7493 11.4832 42.7493L11.8232 42.9831L12.0783 42.8556C12.3758 43.0681 12.3121 43.1531 12.3333 43.1319L12.5459 43.2381C12.8434 43.0681 12.7584 42.8981 12.8434 42.8556L13.0347 42.9193V43.0256C12.9072 43.2169 12.9709 43.1956 12.9497 43.2169C13.2472 43.5782 13.226 43.4931 13.2472 43.5357C13.5873 43.812 13.481 43.7695 13.566 43.9182H13.5235Z" fill="white"/>
<path d="M13.5235 43.9182C13.141 44.0033 13.2685 44.0458 13.0985 44.1095C12.8859 44.0032 12.9497 43.897 12.9284 43.8545C12.5459 43.7907 12.5459 43.9395 12.4609 43.982L12.2271 43.8545C11.1006 44.8747 10.548 44.0458 9.99541 43.982C9.48532 44.3221 9.54907 44.8322 9.48531 44.8534H9.40031C9.40031 44.7471 9.37906 44.7471 9.40031 44.7471C8.99649 44.4708 9.3153 44.1733 9.27279 44.1308C8.91148 44.152 8.99648 44.1308 8.89021 44.1095C8.74143 43.897 8.80519 43.8757 8.78394 43.8757H8.80521C10.0379 43.4081 9.84665 42.9406 9.97417 43.0043L10.1867 43.1106C11.0368 42.5367 10.803 42.303 10.9093 42.1329H11.0156C11.1644 42.1967 11.1218 42.2179 11.1431 42.2605C11.5682 42.303 11.7807 42.5155 11.8232 42.5155V42.6218C11.5894 42.643 11.5469 42.7493 11.4832 42.7493L11.8232 42.9831L12.0783 42.8556C12.3758 43.0681 12.3121 43.1531 12.3333 43.1319L12.5459 43.2381C12.8434 43.0681 12.7584 42.8981 12.8434 42.8556L13.0347 42.9193V43.0256C12.9072 43.2169 12.9709 43.1956 12.9497 43.2169C13.2472 43.5782 13.226 43.4931 13.2472 43.5357C13.5873 43.812 13.481 43.7695 13.566 43.9182H13.5235Z" stroke="black" stroke-width="1.06269" stroke-linecap="round" stroke-linejoin="round"/>
</svg>
